<svg xmlns="http://www.w3.org/2000/svg" fill="none" viewBox="0 0 40 27">
    <path fill="currentColor" d="M10.746 12.008v9.263c0 .166.093.323.237.404l8.407 4.763c.302.17.671.17.973 0l8.407-4.762a.466.466 0 0 0 .237-.405v-9.263a.476.476 0 0 0-.714-.405l-7.93 4.491a.996.996 0 0 1-.973 0l-7.93-4.49a.476.476 0 0 0-.714.404Z"/>
    <path fill="currentColor" d="M8.893.072.486 4.832A.948.948 0 0 0 0 5.657v9.522c0 .166.092.323.237.405l8.176 4.633a.476.476 0 0 0 .714-.405V10.83c0-.341.185-.655.487-.824l7.93-4.491a.463.463 0 0 0 0-.81L9.366.072a.48.48 0 0 0-.477 0h.003ZM30.86.063l8.407 4.76c.301.17.486.486.486.825v9.522a.469.469 0 0 1-.237.405l-8.176 4.633a.476.476 0 0 1-.714-.405v-8.982a.945.945 0 0 0-.486-.824l-7.93-4.491a.463.463 0 0 1 0-.81L30.386.063a.48.48 0 0 1 .477 0h-.003Z"/>
</svg>